<svg xmlns="http://www.w3.org/2000/svg" version="1.1" xmlns:xlink="http://www.w3.org/1999/xlink"
     width="100" height="100" viewBox="0 0 2000 1247"><g transform="matrix(1,0,0,1,-1.2121212121212466,0.5048582995952984)">
    <svg viewBox="0 0 396 247" data-background-color="#ffffff" preserveAspectRatio="xMidYMid meet" height="1247" width="2000" xmlns="http://www.w3.org/2000/svg" xmlns:xlink="http://www.w3.org/1999/xlink">
        <g id="tight-bounds" transform="matrix(1,0,0,1,0.2400000000000091,-0.09999999999999432)"><svg viewBox="0 0 395.52 247.2" height="247.2" width="395.52"><g><svg></svg></g><g><svg viewBox="0 0 395.52 247.2" height="247.2" width="395.52"><g transform="matrix(1,0,0,1,75.54432,106.44601836037934)"><svg viewBox="0 0 244.43135999999998 34.30796327924131" height="34.30796327924131" width="244.43135999999998"><g><svg viewBox="0 0 244.43135999999998 34.30796327924131" height="34.30796327924131" width="244.43135999999998">
            <g><svg viewBox="0 0 244.43135999999998 34.30796327924131" height="34.30796327924131" width="244.43135999999998">
                <g><svg viewBox="0 0 244.43135999999998 34.30796327924131" height="34.30796327924131" width="244.43135999999998"><g id="textblocktransform"><svg viewBox="0 0 244.43135999999998 34.30796327924131" height="34.30796327924131" width="244.43135999999998" id="textblock"><g><svg viewBox="0 0 244.43135999999998 34.30796327924131" height="34.30796327924131" width="244.43135999999998"><g transform="matrix(1,0,0,1,0,0)"><svg width="244.43135999999998" viewBox="2.2 -32.7 237.23000000000002 33.300000000000004" height="34.30796327924131" data-palette-color="#067627"><path d="M9.95-4.05Q9.95-2.5 10.25-1.8 10.55-1.1 11.43-0.85 12.3-0.6 14.2-0.6L14.2-0.6Q14.35-0.6 14.35-0.3 14.35 0 14.2 0L14.2 0Q12.7 0 11.8-0.05L11.8-0.05 8.25-0.1 4.8-0.05Q3.9 0 2.35 0L2.35 0Q2.2 0 2.2-0.3 2.2-0.6 2.35-0.6L2.35-0.6Q4.25-0.6 5.13-0.85 6-1.1 6.33-1.83 6.65-2.55 6.65-4.05L6.65-4.05 6.65-27.2Q6.65-28.7 6.33-29.4 6-30.1 5.13-30.38 4.25-30.65 2.35-30.65L2.35-30.65Q2.2-30.65 2.2-30.95 2.2-31.25 2.35-31.25L2.35-31.25 4.8-31.2Q6.9-31.1 8.25-31.1L8.25-31.1Q9.75-31.1 11.85-31.2L11.85-31.2 14.2-31.25Q14.35-31.25 14.35-30.95 14.35-30.65 14.2-30.65L14.2-30.65Q12.35-30.65 11.45-30.35 10.55-30.05 10.25-29.33 9.95-28.6 9.95-27.1L9.95-27.1 9.95-4.05ZM25.1-4.15Q25.1-2.65 25.37-1.93 25.65-1.2 26.4-0.9 27.15-0.6 28.7-0.6L28.7-0.6Q28.85-0.6 28.85-0.3 28.85 0 28.7 0L28.7 0Q27.35 0 26.55-0.05L26.55-0.05 23.5-0.1 20.55-0.05Q19.75 0 18.35 0L18.35 0Q18.25 0 18.25-0.3 18.25-0.6 18.35-0.6L18.35-0.6Q19.95-0.6 20.72-0.88 21.5-1.15 21.8-1.85 22.1-2.55 22.1-4.05L22.1-4.05 22.1-19.35Q22.1-20.85 21.82-21.55 21.55-22.25 20.8-22.53 20.05-22.8 18.5-22.8L18.5-22.8Q18.35-22.8 18.35-23.1 18.35-23.4 18.5-23.4L18.5-23.4 21.75-23.35 24.2-23.4Q24.8-23.4 24.95-23.23 25.1-23.05 25.1-22.45L25.1-22.45 25.1-4.15ZM23.4-17.6Q26.2-20.95 28.9-22.48 31.6-24 34.65-24L34.65-24Q38.35-24 40.6-21.98 42.85-19.95 42.85-15.75L42.85-15.75 42.85-4.05Q42.85-2.55 43.07-1.83 43.3-1.1 43.92-0.85 44.55-0.6 45.9-0.6L45.9-0.6Q46-0.6 46-0.3 46 0 45.9 0L45.9 0Q44.65 0 43.95-0.05L43.95-0.05 41.3-0.1 38.15-0.05Q37.4 0 36.15 0L36.15 0Q36.05 0 36.05-0.3 36.05-0.6 36.15-0.6L36.15-0.6Q37.75-0.6 38.52-0.9 39.3-1.2 39.57-1.93 39.85-2.65 39.85-4.15L39.85-4.15 39.85-14.1Q39.85-18.9 38.17-20.78 36.5-22.65 33.35-22.65L33.35-22.65Q30.85-22.65 28.67-21.43 26.5-20.2 23.9-17.15L23.9-17.15 23.4-17.6ZM72.2-23.4Q72.3-23.4 72.3-23.1 72.3-22.8 72.2-22.8L72.2-22.8Q70.75-22.8 69.72-21.98 68.7-21.15 67.9-19.15L67.9-19.15 60.35-0.05Q60.3 0.15 59.8 0.15L59.8 0.15Q59.3 0.15 59.25-0.05L59.25-0.05 50.15-19.25Q49.15-21.35 48.4-22.08 47.65-22.8 46.35-22.8L46.35-22.8Q46.2-22.8 46.2-23.1 46.2-23.4 46.35-23.4L46.35-23.4 48.25-23.35Q49.65-23.25 50.45-23.25L50.45-23.25Q51.7-23.25 53.5-23.35L53.5-23.35 55.5-23.4Q55.6-23.4 55.6-23.1 55.6-22.8 55.5-22.8L55.5-22.8Q52.9-22.8 52.9-21.25L52.9-21.25Q52.9-20.7 53.3-19.75L53.3-19.75 61.2-3.4 59.65-0.6 66.85-19.45Q67.2-20.5 67.2-20.95L67.2-20.95Q67.2-22.8 63.85-22.8L63.85-22.8Q63.7-22.8 63.7-23.1 63.7-23.4 63.85-23.4L63.85-23.4 65.65-23.35Q67.15-23.25 68.35-23.25L68.35-23.25Q69.15-23.25 70.35-23.35L70.35-23.35 72.2-23.4ZM84.94 0.6Q81.39 0.6 78.87-1.07 76.34-2.75 75.07-5.45 73.79-8.15 73.79-11.25L73.79-11.25Q73.79-14.7 75.44-17.63 77.09-20.55 79.84-22.25 82.59-23.95 85.84-23.95L85.84-23.95Q89.19-23.95 90.89-22.1 92.59-20.25 92.59-17.1L92.59-17.1Q92.59-16.6 92.47-16.38 92.34-16.15 91.99-16.15L91.99-16.15 89.04-16.15Q89.09-16.55 89.09-17.25L89.09-17.25Q89.09-20 87.89-21.48 86.69-22.95 84.29-22.95L84.29-22.95Q82.24-22.95 80.59-21.75 78.94-20.55 78.02-18.3 77.09-16.05 77.09-13L77.09-13Q77.09-9.6 78.24-6.88 79.39-4.15 81.59-2.6 83.79-1.05 86.74-1.05L86.74-1.05Q88.19-1.05 89.69-1.45 91.19-1.85 92.34-2.7L92.34-2.7 92.39-2.7Q92.54-2.7 92.67-2.53 92.79-2.35 92.69-2.2L92.69-2.2Q89.14 0.6 84.94 0.6L84.94 0.6ZM76.09-16.1L76.04-16.8 89.99-17.05 89.99-16.15 76.09-16.1ZM99.79-19.35Q99.79-17.2 101.24-15.88 102.69-14.55 105.59-13.1L105.59-13.1Q107.64-12.05 108.87-11.2 110.09-10.35 110.94-9.1 111.79-7.85 111.79-6.1L111.79-6.1Q111.79-4.25 110.77-2.73 109.74-1.2 107.84-0.3 105.94 0.6 103.39 0.6L103.39 0.6Q99.84 0.6 97.39-1.15L97.39-1.15Q97.14-1.25 97.07-1.45 96.99-1.65 96.94-2.1L96.94-2.1 96.44-7.05Q96.39-7.25 96.67-7.3 96.94-7.35 97.04-7.15L97.04-7.15Q97.74-4.25 99.82-2.23 101.89-0.2 104.44-0.2L104.44-0.2Q106.19-0.2 107.47-1.23 108.74-2.25 108.74-4.4L108.74-4.4Q108.74-6.7 107.24-8.15 105.74-9.6 102.89-11.1L102.89-11.1Q100.89-12.2 99.72-13.03 98.54-13.85 97.74-15.05 96.94-16.25 96.94-17.95L96.94-17.95Q96.94-20.8 99.14-22.4 101.34-24 104.49-24L104.49-24Q107.04-24 109.49-22.85L109.49-22.85Q109.94-22.6 110.07-22.45 110.19-22.3 110.24-22L110.24-22 110.54-17.65Q110.54-17.45 110.27-17.4 109.99-17.35 109.94-17.55L109.94-17.55Q109.69-18.8 108.82-20.13 107.94-21.45 106.59-22.35 105.24-23.25 103.59-23.25L103.59-23.25Q101.79-23.25 100.79-22.15 99.79-21.05 99.79-19.35L99.79-19.35ZM124.74 0.6Q121.89 0.6 120.01-1 118.14-2.6 118.14-6.3L118.14-6.3 118.14-19.4Q118.14-20.65 117.96-21.18 117.79-21.7 117.26-21.88 116.74-22.05 115.54-22.05L115.54-22.05Q115.39-22.05 115.39-22.38 115.39-22.7 115.54-22.7L115.54-22.7Q117.54-22.7 118.91-23.75 120.29-24.8 120.39-26.45L120.39-26.45Q120.39-26.6 120.74-26.6L120.74-26.6Q120.94-26.6 121.01-25.6 121.09-24.6 121.11-20.03 121.14-15.45 121.14-7.9L121.14-7.9Q121.14-4.4 122.49-2.73 123.84-1.05 126.59-1.05L126.59-1.05Q129.24-1.05 131.24-2.4L131.24-2.4 131.34-2.45Q131.49-2.45 131.59-2.23 131.69-2 131.54-1.9L131.54-1.9Q129.49-0.55 127.96 0.03 126.44 0.6 124.74 0.6L124.74 0.6ZM130.04-20.75Q125.69-21.9 120.34-21.9L120.34-21.9 120.34-22.8Q123.79-22.8 130.19-23.25L130.19-23.25Q130.34-23.25 130.44-22.95 130.54-22.65 130.54-22.15L130.54-22.15Q130.54-21.7 130.36-21.2 130.19-20.7 130.04-20.75L130.04-20.75ZM141.69-30.35Q138.59-30.35 137.01-28.75 135.44-27.15 134.74-23.3L134.74-23.3Q134.74-23.2 134.46-23.2 134.19-23.2 134.19-23.3L134.19-23.3Q134.39-25.1 134.64-28 134.89-30.9 134.89-32.35L134.89-32.35Q134.89-32.6 135.16-32.6 135.44-32.6 135.44-32.35L135.44-32.35Q135.44-31.25 138.14-31.25L138.14-31.25Q142.44-31.1 148.19-31.1L148.19-31.1Q151.14-31.1 154.44-31.2L154.44-31.2 157.84-31.25Q159.64-31.25 160.51-31.5 161.39-31.75 161.64-32.5L161.64-32.5Q161.69-32.7 161.94-32.7 162.19-32.7 162.19-32.5L162.19-32.5Q162.04-31.05 161.89-28.1 161.74-25.15 161.74-23.3L161.74-23.3Q161.74-23.2 161.44-23.2 161.14-23.2 161.14-23.3L161.14-23.3Q160.99-27.2 159.54-28.78 158.09-30.35 154.74-30.35L154.74-30.35Q152.49-30.35 151.54-30.15 150.59-29.95 150.24-29.3 149.89-28.65 149.89-27.1L149.89-27.1 149.89-4.05Q149.89-2.5 150.24-1.8 150.59-1.1 151.59-0.85 152.59-0.6 154.74-0.6L154.74-0.6Q154.89-0.6 154.89-0.3 154.89 0 154.74 0L154.74 0Q153.09 0 152.09-0.05L152.09-0.05 148.19-0.1 144.44-0.05Q143.44 0 141.69 0L141.69 0Q141.59 0 141.59-0.3 141.59-0.6 141.69-0.6L141.69-0.6Q143.84-0.6 144.84-0.85 145.84-1.1 146.21-1.83 146.59-2.55 146.59-4.05L146.59-4.05 146.59-27.2Q146.59-28.75 146.24-29.38 145.89-30 144.94-30.18 143.99-30.35 141.69-30.35L141.69-30.35ZM174.03 0.6Q170.48 0.6 167.96-1.07 165.43-2.75 164.16-5.45 162.88-8.15 162.88-11.25L162.88-11.25Q162.88-14.7 164.53-17.63 166.18-20.55 168.93-22.25 171.68-23.95 174.93-23.95L174.93-23.95Q178.28-23.95 179.98-22.1 181.68-20.25 181.68-17.1L181.68-17.1Q181.68-16.6 181.56-16.38 181.43-16.15 181.08-16.15L181.08-16.15 178.13-16.15Q178.18-16.55 178.18-17.25L178.18-17.25Q178.18-20 176.98-21.48 175.78-22.95 173.38-22.95L173.38-22.95Q171.33-22.95 169.68-21.75 168.03-20.55 167.11-18.3 166.18-16.05 166.18-13L166.18-13Q166.18-9.6 167.33-6.88 168.48-4.15 170.68-2.6 172.88-1.05 175.83-1.05L175.83-1.05Q177.28-1.05 178.78-1.45 180.28-1.85 181.43-2.7L181.43-2.7 181.48-2.7Q181.63-2.7 181.76-2.53 181.88-2.35 181.78-2.2L181.78-2.2Q178.23 0.6 174.03 0.6L174.03 0.6ZM165.18-16.1L165.13-16.8 179.08-17.05 179.08-16.15 165.18-16.1ZM198.58-24Q200.48-24 202.66-23.63 204.83-23.25 206.18-22.55L206.18-22.55Q206.53-22.4 206.63-22.25 206.73-22.1 206.78-21.7L206.78-21.7 207.28-16.55Q207.28-16.4 207.01-16.35 206.73-16.3 206.68-16.5L206.68-16.5Q205.78-19.95 203.41-21.6 201.03-23.25 197.53-23.25L197.53-23.25Q194.93-23.25 192.83-21.85 190.73-20.45 189.56-18.03 188.38-15.6 188.38-12.55L188.38-12.55Q188.38-9.45 189.58-6.58 190.78-3.7 193.16-1.9 195.53-0.1 198.88-0.1L198.88-0.1Q201.93-0.1 204.06-1.8 206.18-3.5 207.13-7L207.13-7Q207.13-7.15 207.38-7.15L207.38-7.15Q207.48-7.15 207.61-7.08 207.73-7 207.73-6.95L207.73-6.95 207.08-1.65Q207.03-1.25 206.93-1.1 206.83-0.95 206.38-0.75L206.38-0.75Q202.53 0.6 198.38 0.6L198.38 0.6Q193.63 0.6 190.58-1.3 187.53-3.2 186.18-6.05 184.83-8.9 184.83-11.8L184.83-11.8Q184.83-15.2 186.63-18 188.43-20.8 191.58-22.4 194.73-24 198.58-24L198.58-24ZM232.48-19.25Q232.48-20.75 232.2-21.48 231.93-22.2 231.15-22.5 230.38-22.8 228.78-22.8L228.78-22.8Q228.63-22.8 228.63-23.1 228.63-23.4 228.78-23.4L228.78-23.4 230.98-23.35Q232.78-23.25 234.03-23.25L234.03-23.25Q235.13-23.25 237.03-23.35L237.03-23.35 239.28-23.4Q239.43-23.4 239.43-23.1 239.43-22.8 239.28-22.8L239.28-22.8Q237.63-22.8 236.85-22.53 236.08-22.25 235.78-21.55 235.48-20.85 235.48-19.35L235.48-19.35 235.48-4.05Q235.48-2.55 235.78-1.83 236.08-1.1 236.85-0.85 237.63-0.6 239.28-0.6L239.28-0.6Q239.43-0.6 239.43-0.3 239.43 0 239.28 0L239.28 0Q237.88 0 237.03-0.05L237.03-0.05 234.03-0.1 230.98-0.05Q230.18 0 228.78 0L228.78 0Q228.63 0 228.63-0.3 228.63-0.6 228.78-0.6L228.78-0.6Q230.43-0.6 231.18-0.85 231.93-1.1 232.2-1.83 232.48-2.55 232.48-4.05L232.48-4.05 232.48-19.25ZM216.83-11.35L216.83-12.25 233.78-12.25 233.78-11.35 216.83-11.35ZM215.48-19.35Q215.48-20.85 215.2-21.55 214.93-22.25 214.15-22.53 213.38-22.8 211.73-22.8L211.73-22.8Q211.63-22.8 211.63-23.1 211.63-23.4 211.73-23.4L211.73-23.4 213.98-23.35Q215.88-23.25 216.93-23.25L216.93-23.25Q218.18-23.25 220.08-23.35L220.08-23.35 222.23-23.4Q222.33-23.4 222.33-23.1 222.33-22.8 222.23-22.8L222.23-22.8Q220.63-22.8 219.83-22.5 219.03-22.2 218.75-21.48 218.48-20.75 218.48-19.25L218.48-19.25 218.48-4.05Q218.48-2.5 218.75-1.8 219.03-1.1 219.78-0.85 220.53-0.6 222.23-0.6L222.23-0.6Q222.33-0.6 222.33-0.3 222.33 0 222.23 0L222.23 0Q220.83 0 220.03-0.05L220.03-0.05 216.93-0.1 213.98-0.05Q213.13 0 211.68 0L211.68 0Q211.58 0 211.58-0.3 211.58-0.6 211.68-0.6L211.68-0.6Q213.33-0.6 214.1-0.85 214.88-1.1 215.18-1.83 215.48-2.55 215.48-4.05L215.48-4.05 215.48-19.35Z" opacity="1" transform="matrix(1,0,0,1,0,0)" fill="#067627" class="wordmark-text-0" data-fill-palette-color="primary" id="text-0"></path>
                </svg></g></svg></g></svg></g></svg></g></svg></g></svg></g></svg></g><g><path d="M245.816 0c68.262 0 123.6 55.338 123.6 123.6 0 68.262-55.338 123.6-123.6 123.6-61.033 0-111.733-44.237-121.789-102.396l1.571 0c10.037 57.301 60.042 100.849 120.218 100.849 67.408 0 122.053-54.645 122.053-122.053 0-67.408-54.645-122.053-122.053-122.053-60.176 0-110.181 43.549-120.218 100.849l-1.571 0c10.055-58.16 60.755-102.396 121.789-102.396z" fill="#067627" stroke="transparent" data-fill-palette-color="tertiary"></path></g></svg></g><defs></defs></svg><rect width="395.52" height="247.2" fill="none" stroke="none" visibility="hidden"></rect></g></svg></g></svg>