<?xml version="1.0" encoding="utf-8"?>
<!-- Generator: Adobe Illustrator 27.5.0, SVG Export Plug-In . SVG Version: 6.00 Build 0)  -->
<svg width="100" height="50" fill="none" version="1.1" xmlns="http://www.w3.org/2000/svg" xmlns:xlink="http://www.w3.org/1999/xlink" x="0px" y="0px"
	 viewBox="0 0 841.89 566.929" style="enable-background:new 0 0 841.89 566.929;" xml:space="preserve">
<g id="BG">
	<rect y="0" style="fill:#FFFFFF;" width="841.89" height="566.929"/>
</g>
<g id="graphics">
	<g>
		<path style="fill:#8C9799;" d="M335.594,415.92v8.636h0.058c0.194-0.544,0.472-1.021,0.832-1.43
			c0.359-0.408,0.772-0.753,1.24-1.035c0.467-0.281,0.972-0.49,1.517-0.628c0.544-0.135,1.09-0.203,1.634-0.203
			c1.147,0,2.145,0.214,2.99,0.642c0.847,0.428,1.551,1.006,2.115,1.735c0.564,0.729,0.982,1.575,1.255,2.539
			c0.271,0.962,0.408,1.978,0.408,3.049c0,1.069-0.137,2.086-0.408,3.048c-0.273,0.963-0.691,1.809-1.255,2.538
			c-0.564,0.73-1.269,1.304-2.115,1.723c-0.846,0.417-1.843,0.626-2.99,0.626c-1.225,0-2.319-0.281-3.282-0.846
			c-0.963-0.564-1.658-1.371-2.086-2.422h-0.059v2.859h-1.691V415.92H335.594z M345.527,426.905
			c-0.184-0.768-0.477-1.454-0.875-2.057c-0.398-0.603-0.909-1.095-1.531-1.475c-0.623-0.379-1.372-0.568-2.247-0.568
			c-0.973,0-1.794,0.19-2.466,0.568c-0.67,0.38-1.215,0.872-1.633,1.475c-0.419,0.603-0.72,1.288-0.904,2.057
			c-0.186,0.768-0.277,1.541-0.277,2.319c0,0.777,0.092,1.551,0.277,2.319c0.185,0.768,0.485,1.454,0.904,2.057
			c0.418,0.604,0.963,1.094,1.633,1.473c0.672,0.38,1.493,0.569,2.466,0.569c0.875,0,1.624-0.189,2.247-0.569
			c0.622-0.379,1.133-0.869,1.531-1.473c0.398-0.602,0.691-1.289,0.875-2.057c0.186-0.769,0.277-1.542,0.277-2.319
			C345.805,428.446,345.713,427.673,345.527,426.905z"/>
		<path style="fill:#8C9799;" d="M352.369,415.92v2.947h-1.839v-2.947H352.369z M352.369,421.697v15.054h-1.839v-15.054H352.369z"/>
		<path style="fill:#8C9799;" d="M365.308,421.901c0.885,0.428,1.629,1.002,2.232,1.721c0.603,0.721,1.06,1.561,1.371,2.524
			c0.311,0.962,0.467,1.989,0.467,3.078c0,1.089-0.156,2.114-0.467,3.078c-0.312,0.962-0.769,1.804-1.371,2.522
			c-0.604,0.72-1.348,1.289-2.232,1.708c-0.885,0.417-1.901,0.626-3.049,0.626s-2.164-0.209-3.049-0.626
			c-0.885-0.419-1.629-0.988-2.232-1.708c-0.602-0.719-1.06-1.56-1.371-2.522c-0.311-0.964-0.467-1.989-0.467-3.078
			c0-1.089,0.155-2.116,0.467-3.078c0.311-0.963,0.769-1.804,1.371-2.524c0.603-0.719,1.347-1.293,2.232-1.721
			c0.885-0.428,1.901-0.642,3.049-0.642S364.423,421.474,365.308,421.901z M359.954,423.36c-0.661,0.369-1.211,0.855-1.648,1.458
			c-0.438,0.604-0.769,1.289-0.991,2.057c-0.225,0.77-0.336,1.552-0.336,2.35c0,0.798,0.111,1.58,0.336,2.348
			c0.223,0.77,0.554,1.455,0.991,2.058c0.438,0.603,0.987,1.089,1.648,1.458c0.661,0.37,1.43,0.555,2.305,0.555
			s1.643-0.185,2.306-0.555c0.66-0.369,1.21-0.855,1.647-1.458c0.438-0.603,0.769-1.288,0.992-2.058
			c0.224-0.768,0.336-1.55,0.336-2.348c0-0.798-0.112-1.58-0.336-2.35c-0.224-0.767-0.555-1.453-0.992-2.057
			c-0.438-0.602-0.987-1.089-1.647-1.458c-0.662-0.369-1.431-0.555-2.306-0.555S360.615,422.991,359.954,423.36z"/>
		<path style="fill:#8C9799;" d="M378.102,421.697v1.546h-3.064v10.152c0,0.604,0.083,1.075,0.248,1.415
			c0.165,0.341,0.578,0.531,1.239,0.57c0.525,0,1.051-0.03,1.576-0.088v1.546c-0.272,0-0.545,0.01-0.817,0.029
			c-0.272,0.02-0.544,0.028-0.816,0.028c-1.226,0-2.082-0.237-2.567-0.714c-0.486-0.478-0.72-1.358-0.7-2.641v-10.299h-2.626v-1.546
			h2.626v-4.522h1.838v4.522H378.102z"/>
		<path style="fill:#8C9799;" d="M382.112,431.777c0.185,0.71,0.481,1.347,0.891,1.91c0.408,0.565,0.923,1.031,1.546,1.4
			c0.622,0.37,1.371,0.555,2.246,0.555c1.343,0,2.393-0.35,3.151-1.051c0.759-0.7,1.283-1.633,1.575-2.8h1.838
			c-0.389,1.711-1.103,3.033-2.145,3.968c-1.04,0.934-2.514,1.399-4.42,1.399c-1.186,0-2.213-0.209-3.078-0.626
			c-0.865-0.419-1.57-0.992-2.115-1.723c-0.544-0.73-0.948-1.575-1.21-2.538c-0.263-0.962-0.395-1.978-0.395-3.048
			c0-0.992,0.132-1.965,0.395-2.918c0.262-0.953,0.666-1.804,1.21-2.553c0.545-0.749,1.25-1.352,2.115-1.809
			c0.865-0.457,1.892-0.686,3.078-0.686c1.206,0,2.236,0.243,3.093,0.729c0.855,0.486,1.551,1.124,2.086,1.911
			c0.535,0.788,0.919,1.692,1.152,2.713c0.233,1.021,0.331,2.058,0.292,3.108h-11.582
			C381.836,430.382,381.928,431.066,382.112,431.777z M391.215,426.161c-0.224-0.642-0.54-1.212-0.948-1.708
			c-0.408-0.495-0.904-0.894-1.487-1.195c-0.584-0.302-1.245-0.452-1.984-0.452c-0.759,0-1.429,0.15-2.013,0.452
			c-0.583,0.302-1.079,0.7-1.487,1.195c-0.409,0.496-0.735,1.07-0.979,1.723c-0.243,0.651-0.403,1.318-0.48,1.997h9.744
			C391.56,427.474,391.438,426.803,391.215,426.161z"/>
		<path style="fill:#8C9799;" d="M405.116,423.769c-0.681-0.643-1.633-0.963-2.858-0.963c-0.876,0-1.643,0.186-2.305,0.555
			c-0.662,0.369-1.211,0.855-1.648,1.458c-0.439,0.604-0.769,1.289-0.992,2.057c-0.224,0.77-0.335,1.552-0.335,2.35
			c0,0.798,0.111,1.58,0.335,2.348c0.224,0.77,0.554,1.455,0.992,2.058c0.438,0.603,0.986,1.089,1.648,1.458
			c0.661,0.37,1.429,0.555,2.305,0.555c0.564,0,1.099-0.107,1.605-0.321c0.506-0.213,0.952-0.511,1.342-0.89
			c0.389-0.379,0.71-0.831,0.963-1.357c0.253-0.524,0.408-1.099,0.467-1.722h1.838c-0.253,1.829-0.924,3.254-2.013,4.275
			c-1.09,1.02-2.49,1.53-4.201,1.53c-1.147,0-2.164-0.209-3.049-0.626c-0.886-0.419-1.629-0.988-2.232-1.708
			c-0.603-0.719-1.06-1.56-1.372-2.522c-0.311-0.964-0.467-1.989-0.467-3.078c0-1.089,0.156-2.116,0.467-3.078
			c0.311-0.963,0.768-1.804,1.372-2.524c0.603-0.719,1.346-1.293,2.232-1.721c0.885-0.428,1.901-0.642,3.049-0.642
			c1.614,0,2.98,0.428,4.099,1.283c1.118,0.857,1.784,2.149,1.999,3.881h-1.838C406.265,425.296,405.797,424.41,405.116,423.769z"/>
		<path style="fill:#8C9799;" d="M412.849,415.92v8.373h0.059c0.35-0.914,0.972-1.648,1.867-2.202
			c0.894-0.554,1.876-0.831,2.946-0.831c1.05,0,1.93,0.136,2.64,0.408c0.71,0.272,1.279,0.656,1.707,1.152
			c0.428,0.496,0.729,1.103,0.904,1.823c0.176,0.72,0.263,1.527,0.263,2.422v9.686h-1.838v-9.395c0-0.642-0.058-1.24-0.175-1.794
			c-0.117-0.554-0.321-1.036-0.613-1.444c-0.291-0.408-0.686-0.729-1.182-0.963c-0.496-0.232-1.113-0.35-1.853-0.35
			c-0.739,0-1.396,0.132-1.969,0.395c-0.574,0.262-1.061,0.622-1.459,1.078c-0.398,0.458-0.71,1.003-0.934,1.635
			c-0.224,0.632-0.346,1.318-0.364,2.057v8.781h-1.839V415.92H412.849z"/>
		<path style="fill:#8C9799;" d="M428.515,421.697v2.596h0.057c0.351-0.914,0.973-1.648,1.868-2.202
			c0.895-0.554,1.876-0.831,2.946-0.831c1.051,0,1.931,0.136,2.64,0.408c0.712,0.272,1.279,0.656,1.708,1.152
			c0.428,0.496,0.729,1.103,0.905,1.823c0.175,0.72,0.262,1.527,0.262,2.422v9.686h-1.839v-9.395c0-0.642-0.057-1.24-0.175-1.794
			c-0.116-0.554-0.32-1.036-0.612-1.444c-0.291-0.408-0.685-0.729-1.182-0.963c-0.496-0.232-1.114-0.35-1.853-0.35
			c-0.739,0-1.396,0.132-1.97,0.395c-0.574,0.262-1.06,0.622-1.458,1.078c-0.398,0.458-0.711,1.003-0.933,1.635
			c-0.224,0.632-0.347,1.318-0.365,2.057v8.781h-1.838v-15.054H428.515z"/>
		<path style="fill:#8C9799;" d="M451.78,421.901c0.887,0.428,1.629,1.002,2.232,1.721c0.604,0.721,1.06,1.561,1.372,2.524
			c0.31,0.962,0.467,1.989,0.467,3.078c0,1.089-0.156,2.114-0.467,3.078c-0.313,0.962-0.768,1.804-1.372,2.522
			c-0.604,0.72-1.346,1.289-2.232,1.708c-0.885,0.417-1.901,0.626-3.048,0.626c-1.147,0-2.165-0.209-3.049-0.626
			c-0.885-0.419-1.63-0.988-2.232-1.708c-0.603-0.719-1.061-1.56-1.371-2.522c-0.313-0.964-0.467-1.989-0.467-3.078
			c0-1.089,0.154-2.116,0.467-3.078c0.31-0.963,0.768-1.804,1.371-2.524c0.602-0.719,1.347-1.293,2.232-1.721
			c0.884-0.428,1.901-0.642,3.049-0.642C449.879,421.26,450.895,421.474,451.78,421.901z M446.428,423.36
			c-0.662,0.369-1.211,0.855-1.647,1.458c-0.44,0.604-0.771,1.289-0.992,2.057c-0.224,0.77-0.336,1.552-0.336,2.35
			c0,0.798,0.112,1.58,0.336,2.348c0.222,0.77,0.553,1.455,0.992,2.058c0.436,0.603,0.985,1.089,1.647,1.458
			c0.661,0.37,1.429,0.555,2.305,0.555s1.645-0.185,2.305-0.555c0.661-0.369,1.212-0.855,1.648-1.458
			c0.437-0.603,0.769-1.288,0.992-2.058c0.224-0.768,0.335-1.55,0.335-2.348c0-0.798-0.111-1.58-0.335-2.35
			c-0.224-0.767-0.556-1.453-0.992-2.057c-0.436-0.602-0.987-1.089-1.648-1.458c-0.66-0.369-1.429-0.555-2.305-0.555
			S447.089,422.991,446.428,423.36z"/>
		<path style="fill:#8C9799;" d="M460.461,415.92v20.831h-1.839V415.92H460.461z"/>
		<path style="fill:#8C9799;" d="M473.399,421.901c0.885,0.428,1.63,1.002,2.232,1.721c0.603,0.721,1.061,1.561,1.371,2.524
			c0.312,0.962,0.467,1.989,0.467,3.078c0,1.089-0.154,2.114-0.467,3.078c-0.31,0.962-0.768,1.804-1.371,2.522
			c-0.602,0.72-1.347,1.289-2.232,1.708c-0.886,0.417-1.901,0.626-3.049,0.626c-1.148,0-2.164-0.209-3.048-0.626
			c-0.887-0.419-1.629-0.988-2.233-1.708c-0.603-0.719-1.059-1.56-1.371-2.522c-0.31-0.964-0.467-1.989-0.467-3.078
			c0-1.089,0.156-2.116,0.467-3.078c0.313-0.963,0.768-1.804,1.371-2.524c0.605-0.719,1.347-1.293,2.233-1.721
			c0.884-0.428,1.899-0.642,3.048-0.642C471.498,421.26,472.514,421.474,473.399,421.901z M468.046,423.36
			c-0.661,0.369-1.21,0.855-1.648,1.458c-0.438,0.604-0.769,1.289-0.992,2.057c-0.224,0.77-0.336,1.552-0.336,2.35
			c0,0.798,0.112,1.58,0.336,2.348c0.224,0.77,0.555,1.455,0.992,2.058c0.438,0.603,0.987,1.089,1.648,1.458
			c0.66,0.37,1.431,0.555,2.305,0.555c0.875,0,1.643-0.185,2.305-0.555c0.662-0.369,1.211-0.855,1.647-1.458
			c0.44-0.603,0.769-1.288,0.992-2.058c0.224-0.768,0.336-1.55,0.336-2.348c0-0.798-0.112-1.58-0.336-2.35
			c-0.224-0.767-0.553-1.453-0.992-2.057c-0.436-0.602-0.985-1.089-1.647-1.458c-0.661-0.369-1.43-0.555-2.305-0.555
			C469.477,422.806,468.706,422.991,468.046,423.36z"/>
		<path style="fill:#8C9799;" d="M492.567,438.531c-0.243,0.893-0.627,1.652-1.152,2.275c-0.525,0.622-1.212,1.099-2.056,1.43
			c-0.847,0.33-1.883,0.496-3.109,0.496c-0.757,0-1.498-0.088-2.216-0.263c-0.72-0.176-1.367-0.447-1.941-0.817
			c-0.574-0.369-1.049-0.842-1.429-1.415c-0.38-0.573-0.598-1.26-0.656-2.057h1.838c0.098,0.564,0.287,1.035,0.568,1.415
			c0.282,0.379,0.622,0.686,1.021,0.92c0.399,0.232,0.843,0.402,1.328,0.51c0.485,0.108,0.981,0.16,1.487,0.16
			c1.712,0,2.946-0.485,3.706-1.459c0.758-0.973,1.138-2.373,1.138-4.2v-2.043h-0.059c-0.427,0.934-1.056,1.683-1.881,2.246
			c-0.827,0.565-1.794,0.847-2.904,0.847c-1.205,0-2.236-0.199-3.092-0.599c-0.856-0.397-1.561-0.947-2.114-1.648
			c-0.555-0.699-0.958-1.521-1.212-2.465c-0.253-0.943-0.38-1.95-0.38-3.02c0-1.03,0.152-2.009,0.454-2.932
			c0.3-0.924,0.739-1.731,1.313-2.422c0.572-0.69,1.283-1.234,2.13-1.634c0.846-0.398,1.813-0.598,2.901-0.598
			c0.563,0,1.096,0.078,1.592,0.232c0.496,0.156,0.947,0.375,1.354,0.657c0.41,0.282,0.774,0.607,1.096,0.977
			c0.32,0.37,0.567,0.759,0.743,1.167h0.059v-2.596h1.839v13.829C492.933,436.634,492.81,437.637,492.567,438.531z M488.352,434.52
			c0.602-0.34,1.108-0.788,1.516-1.343c0.409-0.554,0.715-1.191,0.92-1.91c0.204-0.72,0.306-1.459,0.306-2.218
			c0-0.738-0.086-1.478-0.262-2.217c-0.175-0.739-0.458-1.41-0.846-2.014c-0.391-0.602-0.891-1.089-1.503-1.458
			c-0.614-0.369-1.357-0.555-2.233-0.555c-0.873,0-1.622,0.18-2.245,0.54c-0.623,0.359-1.138,0.831-1.547,1.415
			c-0.407,0.583-0.705,1.249-0.889,1.998c-0.185,0.749-0.278,1.513-0.278,2.29c0,0.759,0.097,1.498,0.291,2.218
			c0.194,0.719,0.496,1.357,0.905,1.91c0.407,0.555,0.925,1.003,1.547,1.343c0.621,0.341,1.361,0.511,2.216,0.511
			C487.048,435.03,487.749,434.86,488.352,434.52z"/>
		<path style="fill:#8C9799;" d="M496.697,421.697l4.96,12.837l4.639-12.837h1.838l-6.536,17.33
			c-0.272,0.642-0.525,1.171-0.758,1.589c-0.234,0.419-0.491,0.75-0.774,0.992c-0.28,0.244-0.612,0.419-0.992,0.525
			c-0.377,0.107-0.86,0.16-1.443,0.16c-0.369-0.019-0.656-0.033-0.861-0.043c-0.204-0.011-0.384-0.044-0.54-0.103v-1.546
			c0.216,0.038,0.425,0.073,0.629,0.102c0.203,0.029,0.412,0.044,0.627,0.044c0.407,0,0.743-0.059,1.007-0.175
			c0.262-0.117,0.489-0.277,0.686-0.482c0.194-0.204,0.359-0.452,0.496-0.743c0.135-0.293,0.281-0.613,0.436-0.964l0.642-1.691
			l-6.01-14.996H496.697z"/>
	</g>
	<g>
		<path style="fill:#208AD6;" d="M508.578,216.655c11.322,45.494-23.93,87.441-66.582,88.027
			c-8.369,0.113-16.117-3.635-21.907-9.322c-36.269,16.172-69.692,21.336-85.979,13.439l-3.211,4.463
			c-8.114,11.285-0.428,27.424,13.063,27.424c6.713,0,146.027,0,152.723,0c13.49,0,21.178-16.139,13.063-27.424l-12.395-17.232
			c5.076-6.572,15.684-19.707,17.951-39.266C518.234,231.483,508.578,216.655,508.578,216.655z"/>
		<g>
			<path style="fill:#95D143;" d="M441.465,275.214c-9.463,3.986-19.114,7.402-28.539,10.115
				c-3.202-6.705-4.104-14.238-1.578-21.047c6.029-16.24,17.775-21.676,47.865-26.988v-38.1h1.877c4.566,0,8.268-3.701,8.268-8.268
				c0-4.564-3.701-8.266-8.268-8.266h-81.535c-4.566,0-8.268,3.701-8.268,8.266c0,4.566,3.701,8.268,8.268,8.268h1.877v38.627
				c0,3.359-1.06,6.65-3.021,9.379c-19.32,26.863-12.372,17.203-29.914,41.594c-22.305-9.977-7.62-32.574,9.695-49.682
				c-27.754,16.1-36.391,36.646-30.312,49.594c14.254,30.248,112.707,6.049,158.978-34.283
				C492.482,249.52,487.5,255.816,441.465,275.214z"/>
		</g>
	</g>
	<g>
		<g>
			<path style="fill:#768589;" d="M313.473,404.268v-2.546c-1.798,2.797-4.221,4.545-7.266,5.243
				c-3.048,0.698-6.068,0.449-9.064-0.749c-2.997-1.199-5.569-3.42-7.716-6.667c-2.148-3.245-3.221-7.515-3.221-12.81
				c0-6.191,1.424-11.211,4.271-15.057c2.846-3.845,7.415-5.769,13.708-5.769c4.794,0,9.237,1.299,13.334,3.896
				c4.094,2.598,6.142,7.393,6.142,14.383v21.124c0,6.991-2.048,11.762-6.142,14.309c-4.097,2.547-8.54,3.82-13.334,3.82
				c-9.191,0-14.884-4.295-17.08-12.885h10.936c0.799,1.397,2.023,2.473,3.671,3.222c1.648,0.749,3.296,0.947,4.944,0.6
				c1.648-0.352,3.146-1.325,4.495-2.923C312.499,409.86,313.271,407.464,313.473,404.268z M296.394,387.039
				c0,6.891,1.997,10.712,5.992,11.462c3.994,0.748,6.941-0.174,8.84-2.772c0.899-1.099,1.547-2.82,1.947-5.169
				c0.398-2.345,0.424-4.668,0.075-6.967c-0.352-2.296-1.175-4.345-2.472-6.143c-1.299-1.798-3.198-2.696-5.693-2.696
				c-3.397,0-5.693,1.25-6.892,3.745C296.992,380.997,296.394,383.843,296.394,387.039z"/>
			<path style="fill:#768589;" d="M326.992,406.665v-19.326c0-3.896,0.574-7.166,1.723-9.814c1.148-2.645,2.721-4.769,4.72-6.366
				c1.896-1.499,4.12-2.597,6.667-3.297c2.547-0.698,5.169-1.049,7.866-1.049c0.199,0,0.449,0,0.749,0c0.3,0,0.547,0,0.75,0v10.638
				h-3.446c-2.898,0-5.044,0.699-6.442,2.098c-1.399,1.399-2.098,3.595-2.098,6.592v20.525H326.992z"/>
			<path style="fill:#768589;" d="M379.766,394.38h7.491c-1.1,4.195-3.198,7.393-6.292,9.589c-3.097,2.298-6.992,3.445-11.686,3.445
				c-5.693,0-10.139-1.847-13.334-5.543c-3.198-3.596-4.794-8.738-4.794-15.432c0-6.391,1.548-11.386,4.645-14.982
				c3.195-3.695,7.641-5.544,13.334-5.544c5.993,0,10.638,1.798,13.933,5.394c3.196,3.696,4.794,8.84,4.794,15.432
				c0,0.4,0,0.749,0,1.049c0,0.299,0,0.501,0,0.599c0,0.501-0.052,0.85-0.149,1.049h-25.919c0.098,3.098,0.848,5.393,2.248,6.893
				c1.297,1.599,3.244,2.396,5.843,2.396c1.697,0,3.146-0.349,4.345-1.048c0.299-0.099,0.573-0.274,0.823-0.524
				c0.249-0.249,0.525-0.525,0.824-0.824c0.099-0.3,0.473-0.698,1.124-1.199C377.642,394.63,378.566,394.38,379.766,394.38z
				 M361.787,382.693h15.282c-0.201-2.696-0.899-4.693-2.098-5.992c-1.299-1.397-3.146-2.098-5.543-2.098
				c-2.198,0-3.996,0.7-5.394,2.098C362.634,378.101,361.885,380.098,361.787,382.693z"/>
			<path style="fill:#768589;" d="M418.755,394.38h7.491c-1.101,4.195-3.198,7.393-6.293,9.589
				c-3.097,2.298-6.992,3.445-11.686,3.445c-5.693,0-10.139-1.847-13.334-5.543c-3.198-3.596-4.795-8.738-4.795-15.432
				c0-6.391,1.548-11.386,4.645-14.982c3.195-3.695,7.641-5.544,13.334-5.544c5.992,0,10.637,1.798,13.933,5.394
				c3.195,3.696,4.794,8.84,4.794,15.432c0,0.4,0,0.749,0,1.049c0,0.299,0,0.501,0,0.599c0,0.501-0.052,0.85-0.149,1.049h-25.919
				c0.099,3.098,0.848,5.393,2.248,6.893c1.296,1.599,3.244,2.396,5.842,2.396c1.698,0,3.147-0.349,4.345-1.048
				c0.3-0.099,0.573-0.274,0.824-0.524c0.248-0.249,0.524-0.525,0.824-0.824c0.099-0.3,0.473-0.698,1.124-1.199
				C416.631,394.63,417.556,394.38,418.755,394.38z M400.776,382.693h15.282c-0.201-2.696-0.899-4.693-2.098-5.992
				c-1.299-1.397-3.146-2.098-5.543-2.098c-2.199,0-3.997,0.7-5.394,2.098C401.624,378.101,400.874,380.098,400.776,382.693z"/>
			<path style="fill:#768589;" d="M464.786,406.665h-5.245c-1.497,0-2.722-0.473-3.67-1.424c-0.95-0.947-1.422-2.171-1.422-3.67
				v-20.375c0-2.397-0.727-4.143-2.173-5.244c-1.45-1.098-3.072-1.648-4.869-1.648c-1.799,0-3.397,0.551-4.795,1.648
				c-1.399,1.101-2.098,2.847-2.098,5.244v25.469h-10.487v-23.372c0-6.79,1.772-11.334,5.318-13.634
				c3.544-2.297,7.466-3.544,11.762-3.745c4.394,0,8.439,1.148,12.135,3.446c3.694,2.299,5.544,6.943,5.544,13.933V406.665z"/>
			<path style="fill:#768589;" d="M468.417,355.127h5.395c1.397,0,2.596,0.476,3.595,1.423c0.997,0.95,1.498,2.124,1.498,3.521
				v46.594h-10.487V355.127z"/>
			<path style="fill:#768589;" d="M507.707,405.017c-2.099,1.101-4.321,1.772-6.668,2.023c-2.348,0.248-4.419,0.374-6.218,0.374
				c-3.595,0-6.742-0.974-9.439-2.922c-2.695-1.946-4.045-5.169-4.045-9.663c0-4.194,1.223-7.19,3.671-8.989
				c2.445-1.798,5.566-2.996,9.363-3.595c0.499,0,1.099-0.075,1.798-0.225c0.697-0.15,1.498-0.274,2.396-0.375
				c4.396-0.6,6.593-1.896,6.593-3.896c0-1.497-0.773-2.471-2.321-2.921c-1.55-0.449-2.974-0.674-4.272-0.674
				c-1.399,0-2.646,0.201-3.745,0.6c-1.1,0.4-1.897,1.15-2.397,2.247h-10.037c0.397-3.095,1.797-5.642,4.193-7.641
				c2.697-2.298,6.542-3.446,11.536-3.446c5.594,0,9.787,0.951,12.586,2.847c2.895,1.999,4.345,4.794,4.345,8.39v13.634
				c0,3.996-0.726,7.117-2.173,9.363C511.426,402.396,509.703,404.021,507.707,405.017z M505.309,386.59
				c-1.398,0.7-3.347,1.348-5.843,1.946l-3.445,0.75c-1.797,0.501-3.097,1.149-3.895,1.947c-0.699,1.101-1.049,2.199-1.049,3.296
				c0,1.499,0.45,2.697,1.349,3.597c0.899,0.801,2.195,1.197,3.896,1.197c2.795,0,4.993-0.797,6.592-2.397
				c1.597-1.597,2.397-3.794,2.397-6.592V386.59z"/>
			<path style="fill:#768589;" d="M528.268,360.071v11.985c1.098-1.897,2.697-3.446,4.794-4.645
				c1.798-0.997,3.993-1.498,6.592-1.498c4.694,0,8.54,1.947,11.537,5.843c2.997,3.896,4.494,8.94,4.494,15.133
				c0,6.193-1.497,11.236-4.494,15.131c-1.499,1.9-3.521,3.272-6.068,4.12c-2.546,0.848-5.07,1.273-7.566,1.273
				c-4.793,0-9.239-1.248-13.333-3.745c-4.097-2.496-6.144-7.29-6.144-14.383v-34.309h5.095c1.397,0,2.596,0.501,3.595,1.497
				C527.767,357.475,528.268,358.674,528.268,360.071z M545.347,386.44c0-3.596-0.749-6.391-2.246-8.391
				c-1.499-2.097-3.548-3.145-6.144-3.145c-2.797,0-4.942,1-6.442,2.996c-1.498,2.098-2.247,4.944-2.247,8.54
				c0,4.195,0.697,7.243,2.098,9.139c1.498,2.099,3.596,3.146,6.291,3.146c2.796,0,4.945-1.048,6.444-3.146
				C544.598,393.48,545.347,390.436,545.347,386.44z"/>
		</g>
	</g>
</g>
</svg>
